<svg width="42" height="40" viewBox="0 0 42 40" fill="none" xmlns="http://www.w3.org/2000/svg">
<g id="vuesax/linear/profile-2user">
<g id="profile-2user">
<path id="Vector" d="M16.0302 18.2197C15.8552 18.2036 15.6452 18.2036 15.4527 18.2197C11.2877 18.0909 7.98024 14.9496 7.98024 11.0833C7.98024 7.13656 11.4452 3.93082 15.7502 3.93082C20.0377 3.93082 23.5202 7.13656 23.5202 11.0833C23.5027 14.9496 20.1952 18.0909 16.0302 18.2197Z" stroke="#00AC4F" stroke-width="2.625" stroke-linecap="round" stroke-linejoin="round"/>
<path id="Vector_2" d="M28.7172 7.15201C32.1122 7.15201 34.8422 9.68116 34.8422 12.7903C34.8422 15.8349 32.2172 18.3157 28.9447 18.4285C28.8047 18.4124 28.6472 18.4124 28.4897 18.4285" stroke="#00AC4F" stroke-width="2.625" stroke-linecap="round" stroke-linejoin="round"/>
<path id="Vector_3" d="M7.28051 24.1634C3.04551 26.7731 3.04551 31.0259 7.28051 33.6195C12.093 36.5836 19.9855 36.5836 24.798 33.6195C29.033 31.0098 29.033 26.757 24.798 24.1634C20.003 21.2154 12.1105 21.2154 7.28051 24.1634Z" stroke="#00AC4F" stroke-width="2.625" stroke-linecap="round" stroke-linejoin="round"/>
<path id="Vector_4" d="M32.0947 32.9275C33.3547 32.6859 34.5447 32.2187 35.5247 31.526C38.2547 29.6412 38.2547 26.5321 35.5247 24.6473C34.5622 23.9707 33.3897 23.5197 32.1472 23.2619" stroke="#00AC4F" stroke-width="2.625" stroke-linecap="round" stroke-linejoin="round"/>
</g>
</g>
</svg>
